<svg xmlns="http://www.w3.org/2000/svg" viewBox="0 0 14.97 14.97"><defs><style>.cls-1{fill:#999;}</style></defs><title>资源36</title><g id="图层_2" data-name="图层 2"><g id="图层_1-2" data-name="图层 1"><path class="cls-1" d="M7.48,0A7.49,7.49,0,1,0,15,7.48,7.48,7.48,0,0,0,7.48,0Zm3,5.15L8.14,7.48l2.29,2.3a.46.46,0,0,1,0,.62.47.47,0,0,1-.64,0L7.48,8.15l-2.31,2.3a.46.46,0,0,1-.65,0,.47.47,0,0,1,0-.66L6.81,7.48l-2.3-2.3a.46.46,0,0,1,0-.66.44.44,0,0,1,.33-.14.43.43,0,0,1,.32.14l2.32,2.3L9.8,4.51a.48.48,0,0,1,.34-.14.47.47,0,0,1,.33.14.46.46,0,0,1,0,.65Z"/></g></g></svg>