<svg xmlns="http://www.w3.org/2000/svg" viewBox="0 0 18.07 21.94"><defs><style>.cls-1{fill:#fff;}</style></defs><title>资源 344</title><g id="图层_2" data-name="图层 2"><g id="图层_1-2" data-name="图层 1"><path class="cls-1" d="M16.52,7.77H14.2V6C14.2,2.22,12.48,0,9,0S3.87,2.22,3.87,6V7.77H1.29A1.53,1.53,0,0,0,0,9.31V19.38a1.89,1.89,0,0,0,1.23,1.69l1.54.5A9.81,9.81,0,0,0,5.29,22h7.49a9.81,9.81,0,0,0,2.52-.39l1.54-.5a1.89,1.89,0,0,0,1.23-1.69V9.31a1.77,1.77,0,0,0-1.55-1.54ZM6.45,5.44c0-1.86,1-2.84,2.59-2.84s2.58,1,2.58,2.84V7.77H6.45Zm0,0" transform="translate(0 -0.02)"/></g></g></svg>