<svg xmlns="http://www.w3.org/2000/svg" viewBox="0 0 15.98 11.18"><defs><style>.cls-1{fill:#999;}</style></defs><title>资源 35</title><g id="图层_2" data-name="图层 2"><g id="图层_1-2" data-name="图层 1"><path class="cls-1" d="M13.58,4V2.42H12V4Zm0,2.4V4.82H12V6.4ZM11.18,4V2.42H9.6V4Zm0,2.4V4.82H9.6V6.4Zm0,3.22V8H4.8V9.62ZM4,4V2.42H2.4V4ZM4,6.4V4.82H2.4V6.4ZM4.8,4.82V6.4H6.38V4.82Zm0-2.4V4H6.38V2.42Zm2.4,2.4V6.4H8.78V4.82Zm0-2.4V4H8.78V2.42ZM14.41,0a1.51,1.51,0,0,1,1.11.47A1.5,1.5,0,0,1,16,1.59v8a1.51,1.51,0,0,1-.46,1.11,1.55,1.55,0,0,1-1.11.47H1.58a1.52,1.52,0,0,1-1.11-.47A1.52,1.52,0,0,1,0,9.62v-8A1.51,1.51,0,0,1,.47.49,1.48,1.48,0,0,1,1.58,0Zm0,0" transform="translate(0 -0.02)"/></g></g></svg>