<svg id="Layer_1" data-name="Layer 1" xmlns="http://www.w3.org/2000/svg" viewBox="0 0 196.92 53.73"><defs><style>.cls-1{fill:#005488;}.cls-2{fill:#e51c10;}</style></defs><title>bannerhuihaoy</title><polygon class="cls-1" points="56.03 47.71 52.24 19.43 55.86 19.43 56.03 47.71"/><path class="cls-1" d="M68.8,5.76a31.77,31.77,0,0,1-1.6,7.71,25.56,25.56,0,0,1-5.75,9v22l17.39-3.81q1.77-11.37,3.45-22.74L71.76,20.22l.45-4.42C73.12,6.71,71.91,3.63,69.06,4c-.07.37-.16.94-.27,1.76Zm6.85,9.72L82.56,14c1.91-.42,3.47-.42,3.47,1.47q0,.28-3.84,25.76a4.6,4.6,0,0,1-3.36,3.33L61.55,48.32c-1.91.42-3.21,0-3.21-1.89V20.77C68.72,11.83,62.67,1.52,68.72.19q7.59-1.66,7.19,11.36-.14,2.65-.27,3.94Zm0,0"/><path class="cls-1" d="M52.11,44.14,50.28,28.86,48.77,16.07,48,8.27c-.13-1.67-2.11-2.82-2.11-2.82l-2-.74L41.4,4.16,38.57,3.9l-13-.67A81.48,81.48,0,0,0,15.46,3a9.57,9.57,0,0,0-6.7,4.21l-.64,1L6.6,12.07,4.78,18.59,3.26,25.45l-.64,5.26-.26,3.88-.18-.05-.64.21-1,.59C0,35.59,0,36.57,0,36.57v5.65c.59,2.39,5.19,3.34,5.19,3.34l9.48,1.08c1,0,.85.64.85.64l-.08.46C14.77,50.41,11,49.87,11,49.87c-5-1.13-6-3-6.15-3.57,1.18,4.75,7.43,4.85,7.43,4.85,3.62.05,4.13-2.31,4.13-2.31l.05-1.23,18.77,1.05.41,1c1.26,2.59,5.14,3.52,5.14,3.52,3.42.54,5.14-.72,5.14-.72,3.06-2.57,2.82-7.09,2.82-7.09ZM6.69,26.48A.45.45,0,0,1,7.16,26l3.93.34a.56.56,0,0,1,.49.62L10.7,38.61a.61.61,0,0,1-.67.59l-3.69-.5a.64.64,0,0,1-.53-.7ZM13,43.68s-7.86-.54-9.19-1.54l-2-.87.1-.13H3.24s2,1,7.63,1.54L21.39,44l7.81.85,2.7.36.54.13ZM24.56,32.81,12.45,32l0-1.59,12.12.81Zm-.07.52,0,1.59-12.12-.81,0-1.59Zm0,2.13,0,1.59-12.12-.81,0-1.59Zm1.62,4.28.71-11.38a.81.81,0,0,1,.85-.79l3.88.28a.83.83,0,0,1,.74.9l-.72,11.58a.81.81,0,0,1-.88.79l-3.86-.47A.84.84,0,0,1,26.13,39.74Zm7.64-15.8-13.92-.74-7.78-.41-4-.21-.35-.07h0l.07-.37,1.93-7.34,1.36-3.47.39-.87a4.47,4.47,0,0,1,3.11-1.8h1.8l12,.67,7.27.41,5.21.36h1.67l.57.24,1.64,1.53-.15,8-.39,4.65ZM46.12,47c-.62,4.37-2.18,4-2.18,4-2.11-.46-1.69-5.6-1.69-5.6.9-5.73,2.59-5.14,2.59-5.14C47,40.65,46.12,47,46.12,47ZM43.76,37s-3.24,0-6.11,4.73l-.36.36s1.13-5.93,6.52-5.74c0,0,3-.37,3.9,4.76C47.72,41.14,46.63,37.08,43.76,37Z"/><path class="cls-2" d="M144.32,18a38.21,38.21,0,0,1-.78,7.17,29.74,29.74,0,0,1-2.09,6.38l1.37,1.12q.68.56,1.27,1.09a2.76,2.76,0,0,1,1.19,2,2,2,0,0,1-.92,1.7,1.65,1.65,0,0,1-.87.35,1.76,1.76,0,0,1-.81-.17,3.36,3.36,0,0,1-.81-.54l-.91-.82-.69-.68q-.33-.31-.69-.61-.86,1.25-1.81,2.41a19.78,19.78,0,0,1-2.11,2.18,3.7,3.7,0,0,1-1.81,1.06,1.92,1.92,0,0,1-1.52-.56q-.89-.76-.73-1.45a4,4,0,0,1,1.19-1.68q1.12-1.12,2.08-2.24a22.24,22.24,0,0,0,1.75-2.34l-1.5-1.22-1.5-1.22a4.11,4.11,0,0,1-.86-.84,2.12,2.12,0,0,1-.38-.91,3.14,3.14,0,0,1,0-1.14q.13-.64.43-1.6a33.38,33.38,0,0,0,.84-3.27q.38-1.81.74-3.83h-.76a3.19,3.19,0,0,1-1.83-.41,1.69,1.69,0,0,1-.58-1.47,1.46,1.46,0,0,1,.58-1.39,3.86,3.86,0,0,1,1.83-.33h1.25q.2-1.65.3-3.33a8.37,8.37,0,0,1,.12-1.07,1.23,1.23,0,0,1,.92-1.06,3.74,3.74,0,0,1,1-.12q1.32,0,1.62.56a3.1,3.1,0,0,1,.13,1.78q-.1.86-.18,1.65t-.21,1.58H141a11.43,11.43,0,0,1,1.81.12,1.59,1.59,0,0,1,1.48,1.48A9.65,9.65,0,0,1,144.32,18Zm-7.16,10.13.56.46.66.49a22.88,22.88,0,0,0,1.52-4.58,31.1,31.1,0,0,0,.66-5.14,1.38,1.38,0,0,0-.13-.86q-.17-.2-.86-.2h-1.45q-.36,2.37-.77,4.55T136.5,27a.65.65,0,0,0,.08.54A4.88,4.88,0,0,0,137.16,28.12ZM161,24.06a1.59,1.59,0,0,1,1.32.5,2.28,2.28,0,0,1,.4,1.45,2.35,2.35,0,0,1-.4,1.47A1.57,1.57,0,0,1,161,28h-1.85a10,10,0,0,1,.2,1.15,11.36,11.36,0,0,1,.07,1.25,20.26,20.26,0,0,1-.38,4,10.39,10.39,0,0,1-1.19,3.23,6.22,6.22,0,0,1-2.08,2.16,5.58,5.58,0,0,1-3,.79q-.63,0-1.2,0a10,10,0,0,1-1.2-.18q-.63-.13-1.35-.36t-1.62-.59a2.93,2.93,0,0,1-1.57-1.14,2.09,2.09,0,0,1,0-1.76,1.53,1.53,0,0,1,1-1.12,2.93,2.93,0,0,1,1.83.26l1.37.5a9.81,9.81,0,0,0,1,.3q.45.1.86.15a7.52,7.52,0,0,0,.87,0,1.56,1.56,0,0,0,1.3-.69,5.48,5.48,0,0,0,.81-1.67,11.1,11.1,0,0,0,.41-2,17.45,17.45,0,0,0,.12-1.83A8.09,8.09,0,0,0,155,28h-8.48a1.78,1.78,0,0,1-2-2q0-1.95,2-1.95h6q-.73-.69-1.65-1.45v0a2.63,2.63,0,0,1-.89-1.07,3.41,3.41,0,0,1-.26-1.37,2.49,2.49,0,0,1,1.39-2.28q.63-.36,1.09-.66l.86-.56.78-.51.81-.51c.35-.24.53-.42.53-.53S155,15,154.51,15h-7.45a2,2,0,0,1-1.48-.53A2,2,0,0,1,145,13q0-1.91,2-1.91h12.37a2.51,2.51,0,0,1,1.8.61,2.11,2.11,0,0,1,.64,1.6,3,3,0,0,1-1.42,2.44l-2.69,2a36.91,36.91,0,0,1-3.12,2.11.56.56,0,0,0-.25.45.94.94,0,0,0,.31.64q.79.89,1.43,1.65t1.14,1.45Z"/><path class="cls-2" d="M196.92,38.44a2.31,2.31,0,0,1-.4,1.55,2,2,0,0,1-1.48.43H180.4q-1.75,0-2.9-.12a7.33,7.33,0,0,1-2-.48,5.64,5.64,0,0,1-1.63-1,16.73,16.73,0,0,1-1.63-1.71,13.53,13.53,0,0,1-1.42,1.9,8,8,0,0,1-1.71,1.43,3.19,3.19,0,0,1-1.76.56,1.5,1.5,0,0,1-1.37-.76,2,2,0,0,1-.35-1.65A2.84,2.84,0,0,1,167,37.05a6.59,6.59,0,0,0,1.88-1.73,4.91,4.91,0,0,0,.63-1.15,3.37,3.37,0,0,0,.23-1.2V24a1.24,1.24,0,0,0-.18-.77.86.86,0,0,0-.68-.21h-1.52a1.94,1.94,0,0,1-1.48-.45,2.19,2.19,0,0,1-.4-1.47,2.33,2.33,0,0,1,.4-1.5,1.86,1.86,0,0,1,1.48-.48h3.07a6.65,6.65,0,0,1,1.53.15,1.79,1.79,0,0,1,1,.58,2.55,2.55,0,0,1,.51,1.15,9.51,9.51,0,0,1,.15,1.85v9.85a2.56,2.56,0,0,1,0,.41,10.83,10.83,0,0,0,1.3,1.73,5.24,5.24,0,0,0,1.42,1.07,5.7,5.7,0,0,0,1.75.54,15.72,15.72,0,0,0,2.33.15H195a2,2,0,0,1,1.48.41A2.05,2.05,0,0,1,196.92,38.44ZM173,16.67a2,2,0,0,1-1.47.54,2.39,2.39,0,0,1-1.47-1l-.73-.76-.64-.66q-.31-.33-.68-.68l-.82-.78a3.15,3.15,0,0,1-.92-1.42,1.63,1.63,0,0,1,.49-1.52,2,2,0,0,1,1.39-.61,2.71,2.71,0,0,1,1.71.74q.92.79,1.6,1.45T173,13.54a3.07,3.07,0,0,1,.82,1.62,1.76,1.76,0,0,1-.86,1.55ZM177.23,22a1.71,1.71,0,0,1-1.45-.53,2.25,2.25,0,0,1-.4-1.38,2.22,2.22,0,0,1,.4-1.44,1.81,1.81,0,0,1,1.45-.48h17.32a1.81,1.81,0,0,1,1.47.48,2.29,2.29,0,0,1,.38,1.44,2.33,2.33,0,0,1-.38,1.38,1.71,1.71,0,0,1-1.47.53h-8.94q-.56,1.22-1,2.11t-.92,1.63l-.87,1.43q-.43.69-.86,1.48t-.18,1.06a2.35,2.35,0,0,0,1.24.13l7.88-.59q-.36-.79-.76-1.47t-1-1.73v0a2.57,2.57,0,0,1-.46-1.86,1.89,1.89,0,0,1,1-1.14,2,2,0,0,1,1.58-.25,2.75,2.75,0,0,1,1.48,1.53q.56,1.19,1,1.95t.74,1.53q.35.77.73,1.76t.94,2.64a3.62,3.62,0,0,1,.2,2.18,2,2,0,0,1-1.38,1.05,3.12,3.12,0,0,1-.76.1,1.25,1.25,0,0,1-.66-.18,1.74,1.74,0,0,1-.54-.58,4.38,4.38,0,0,1-.45-1.06l-.13-.4-.13-.4-12.8,1.15a5,5,0,0,1-2.28-.1,2.07,2.07,0,0,1-1.2-.92,2.09,2.09,0,0,1-.17-1.48,4.83,4.83,0,0,1,.84-1.78q.73-1,1.37-1.85t1.25-1.83q.61-.94,1.2-1.95T181.62,22Zm18-9.46a2.32,2.32,0,0,1-.38,1.38,1.66,1.66,0,0,1-1.43.53H178.52a1.72,1.72,0,0,1-1.45-.53,2.25,2.25,0,0,1-.4-1.38,2.21,2.21,0,0,1,.4-1.43,1.81,1.81,0,0,1,1.45-.48h14.88a1.75,1.75,0,0,1,1.43.48A2.28,2.28,0,0,1,195.21,12.52Z"/><polygon class="cls-1" points="130.26 50.12 95.25 50.01 95.25 48.1 128.12 48.12 130.26 50.12"/><polygon class="cls-2" points="196.77 49.96 131.94 50.12 129.69 48.1 196.75 48.12 196.77 49.96"/><path class="cls-1" d="M97.67,20.79l1,.57.86.53c.29.18.59.39.91.62l1.14.83.2.14v0a3,3,0,0,0,1.68.72h0a2,2,0,0,0,1.47-.79l0,0a1.85,1.85,0,0,0,.52-1.85,3.72,3.72,0,0,0-1.2-1.51l-1.06-.78-.94-.64c-.31-.21-.64-.42-1-.63l-1.18-.73c-1.4-.82-2.49-.67-3.25.46a2.17,2.17,0,0,0-.37,1.76A2.89,2.89,0,0,0,97.67,20.79Z"/><path class="cls-1" d="M106.8,27.79a2.08,2.08,0,0,0-1.33-1.2l-.52-.2,0,0a1.62,1.62,0,0,0-1.22.05,2.54,2.54,0,0,0-1,1.06v-.06l-.23.49c-.76,1.59-1.56,3.09-2.38,4.47a29.26,29.26,0,0,1-2.62,3.74,3.24,3.24,0,0,0-1,2,2.22,2.22,0,0,0,.78,1.56l.21.2v-.07a2.18,2.18,0,0,0,1.26.39H99a2.53,2.53,0,0,0,1.73-1c1-1.38,2-2.84,2.95-4.34s1.84-3.16,2.74-5l.09-.18h0A2.67,2.67,0,0,0,106.8,27.79Z"/><path class="cls-1" d="M105.81,11.51l-1.06-.8-1-.68c-.34-.23-.67-.44-1-.64l-1.18-.69a2.61,2.61,0,0,0-1.93-.48,2.29,2.29,0,0,0-1.32,1A2.11,2.11,0,0,0,98,11a2.72,2.72,0,0,0,1.18,1.33l.95.59.86.57.94.62,1.16.78.19.13v0a3,3,0,0,0,1.68.69h0a2,2,0,0,0,1.47-.75l0,0A1.92,1.92,0,0,0,107,13,3.74,3.74,0,0,0,105.81,11.51Z"/><path class="cls-1" d="M129,36.43a2.12,2.12,0,0,0-1.72-.53h-15c-.27,0-.31,0-.31,0a.7.7,0,0,1,0-.35V13.41c0-.24,0-.3.06-.3a.5.5,0,0,1,.3-.06h14.44a2,2,0,0,0,1.69-.59,2.76,2.76,0,0,0,.41-1.61,2.76,2.76,0,0,0-.41-1.61,2,2,0,0,0-1.69-.59H111.65a14.53,14.53,0,0,0-2.11.12,2.41,2.41,0,0,0-1.29.57,2.18,2.18,0,0,0-.63,1.24,11.85,11.85,0,0,0-.14,2V36.29a12.08,12.08,0,0,0,.14,2.06,2.18,2.18,0,0,0,.63,1.24,2.4,2.4,0,0,0,1.29.57,14.41,14.41,0,0,0,2.11.12H127.3a2.12,2.12,0,0,0,1.72-.53,2.72,2.72,0,0,0,.41-1.67A2.69,2.69,0,0,0,129,36.43Z"/></svg>