<svg xmlns="http://www.w3.org/2000/svg" viewBox="0 0 45.95 39.62"><defs><style>.cls-1{fill:#fff;}</style></defs><title>资源 25</title><g id="图层_2" data-name="图层 2"><g id="图层_1-2" data-name="图层 1"><path class="cls-1" d="M17.24,34.06a3,3,0,1,0,1.5,2.59,3,3,0,0,0-1.5-2.59Zm23.55,0a3,3,0,1,0,1.49,2.59,3,3,0,0,0-1.49-2.59Zm2.12-14.17c.09-.38,2.21-8.49,2.84-11.73a4.9,4.9,0,0,0-1-4.55A4.65,4.65,0,0,0,41,2.43H9.12A7.57,7.57,0,0,0,7.82,1,4.49,4.49,0,0,0,4.74,0H1.41a1.4,1.4,0,1,0,0,2.8H5.06a1.91,1.91,0,0,1,1.12.38A5.15,5.15,0,0,1,7.67,6.75c.61,5.63,2.5,18.89,2.5,19a6.22,6.22,0,0,0,5.48,5.68H24c7.64,0,17.63-.08,18.31-.08A1.37,1.37,0,0,0,43.68,30a1.31,1.31,0,0,0-.4-1,1.33,1.33,0,0,0-1-.39c-.26,0-23.6.17-26.48,0-2.55-.21-2.91-3.31-2.93-3.31s0-.23-.09-.63c4.7-.08,18.43-.31,22.88-.6,6.17-.4,7.13-3.8,7.23-4.18Zm0,0" transform="translate(0 -0.02)"/></g></g></svg>