<?xml version="1.0" standalone="no"?><!DOCTYPE svg PUBLIC "-//W3C//DTD SVG 1.1//EN" "http://www.w3.org/Graphics/SVG/1.1/DTD/svg11.dtd"><svg t="1557296440541" class="icon" style="" viewBox="0 0 1024 1024" version="1.1" xmlns="http://www.w3.org/2000/svg" p-id="3771" xmlns:xlink="http://www.w3.org/1999/xlink" width="200" height="200"><defs><style type="text/css"></style></defs><path d="M907.3 506.6c-4.3-218-184.6-391.2-402.6-386.9S113.5 304.4 117.8 522.4s184.6 391.2 402.6 386.9 391.3-184.6 386.9-402.7z m-187.2 188c7.5 7.5 7.5 19.9 0 27.4s-19.9 7.5-27.4 0L512.6 541.9 332.4 722c-7.5 7.5-19.9 7.5-27.4 0s-7.5-19.9 0-27.4l180.1-180.1L305 334.4c-7.5-7.5-7.5-19.9 0-27.4s19.9-7.5 27.4 0l180.1 180.1L692.7 307c7.5-7.5 19.9-7.5 27.4 0s7.5 19.9 0 27.4L540 514.5l180.1 180.1z" fill="#d81e06" p-id="3772"></path></svg>