<svg xmlns="http://www.w3.org/2000/svg" viewBox="0 0 15.97 15.97"><defs><style>.cls-1{fill:#fff;}</style></defs><title>资源 27</title><g id="图层_2" data-name="图层 2"><g id="图层_1-2" data-name="图层 1"><path class="cls-1" d="M9,0a1.19,1.19,0,0,0-.84.76.24.24,0,0,0,0,.14s0,0,0,.07a.11.11,0,0,1,0,.09V6.63A1.35,1.35,0,0,0,9.39,8H14.9a.11.11,0,0,0,.1,0s0,0,.07,0l.13,0A1.36,1.36,0,0,0,16,7,8,8,0,0,0,9,0ZM9,0" transform="translate(0 -0.02)"/><path class="cls-1" d="M10.65,8.63a3,3,0,1,1-3.3-3.3v-4a2,2,0,0,1,.1-.66,7.68,7.68,0,1,0,7.91,7.91,2,2,0,0,1-.66.1Zm0,0" transform="translate(0 -0.02)"/></g></g></svg>