<svg id="Layer_1" data-name="Layer 1" xmlns="http://www.w3.org/2000/svg" viewBox="0 0 382.3 103.6"><defs><style>.cls-1{fill:#fff;}.cls-2{fill:#e51c10;}</style></defs><title>logo2红</title><polygon class="cls-1" points="108.8 92.6 101.4 37.7 108.5 37.7 108.8 92.6"/><path class="cls-1" d="M133.6,11.2c-1,7.6-1.5,10.3-3.1,15a50.71,50.71,0,0,1-11.2,17.5V86.4L153.1,79c2.3-14.7,4.5-29.4,6.7-44.2l-20.4,4.5.9-8.6c1.8-17.6-.6-23.6-6.1-22.9a15.08,15.08,0,0,0-.6,3.4Zm13.2,18.9,13.4-2.9c3.7-.8,6.7-.8,6.7,2.9,0,.4-2.5,17-7.5,50a8.94,8.94,0,0,1-6.5,6.5L119.4,94c-3.7.8-6.2,0-6.2-3.7v-50c20.1-17.4,8.4-37.4,20.1-40,9.8-2.2,14.5,5.2,14,22.1-.1,3.4-.3,6-.5,7.7Z"/><path class="cls-1" d="M101.2,85.7,97.6,56,94.7,31.2,93.2,16c-.2-3.2-4.1-5.5-4.1-5.5L85.3,9.1l-4.9-1-5.5-.5L49.6,6.3C44,5.4,30,5.8,30,5.8A18.62,18.62,0,0,0,17,14l-1.2,1.8-2.9,7.6L9.3,36.1l-3,13.3L5.1,59.6l-.5,7.5L4.3,67,3,67.5,1,68.6C0,69.1,0,71,0,71V82c1.1,4.6,10.1,6.5,10.1,6.5l18.4,2.1c1.9,0,1.6,1.2,1.6,1.2l-.1.9c-1.3,5.2-8.6,4.1-8.6,4.1-9.7-2.2-11.6-5.9-11.9-6.9,2.3,9.2,14.4,9.4,14.4,9.4,7,.1,8-4.5,8-4.5l.1-2.4,36.4,2,.8,1.9c2.4,5,10,6.8,10,6.8,6.6,1,10-1.4,10-1.4,5.9-5,5.5-13.8,5.5-13.8ZM13,51.4a.81.81,0,0,1,.9-.8l7.6.7a1,1,0,0,1,.9,1.2L20.7,75.1a1.21,1.21,0,0,1-1.3,1.1l-7.2-1a1.25,1.25,0,0,1-1-1.4ZM25.3,84.8s-15.3-1-17.8-3L3.6,80.1l.2-.2H6.4s3.9,1.9,14.8,3l20.4,2.5L56.7,87l5.2.7,1,.2ZM47.7,63.7,24.2,62.1l.1-3.1,23.5,1.6Zm-.1,1-.1,3.1L24,66.2l.1-3.1Zm0,4.1-.1,3.1L24,70.4l.1-3.1Zm3.1,8.3L52.1,55a1.55,1.55,0,0,1,1.6-1.5l7.5.5a1.61,1.61,0,0,1,1.4,1.8L61.2,78.3a1.58,1.58,0,0,1-1.7,1.5L52,78.9A1.77,1.77,0,0,1,50.7,77.1ZM65.6,46.5l-27-1.4-15.1-.8-7.7-.4-.8-.2h0l.1-.7,3.7-14.3L21.4,22l.7-1.7s2.5-3.5,6-3.5h3.5L55,18.1l14.1.8,10.1.7h3.2l1.1.5,3.2,3-.3,15.6-.7,9ZM89.5,91.3c-1.2,8.5-4.2,7.7-4.2,7.7C81.2,98.1,82,88.1,82,88.1c1.7-11.1,5-10,5-10C91.3,78.9,89.5,91.3,89.5,91.3ZM85,71.9s-6.3,0-11.9,9.2l-.7.7s2.2-11.5,12.7-11.1c0,0,5.9-.7,7.6,9.2C92.6,79.9,90.5,72,85,71.9Z"/><path class="cls-2" d="M280.2,34.9a75.89,75.89,0,0,1-1.5,13.9,56.39,56.39,0,0,1-4.1,12.4c.9.7,1.8,1.5,2.7,2.2s1.7,1.4,2.5,2.1c1.5,1.2,2.3,2.5,2.3,3.8a4,4,0,0,1-1.8,3.3,3.43,3.43,0,0,1-1.7.7A4.53,4.53,0,0,1,277,73a6.57,6.57,0,0,1-1.6-1.1c-.5-.5-1.1-1-1.8-1.6L272.3,69c-.4-.4-.9-.8-1.3-1.2-1.1,1.6-2.3,3.2-3.5,4.7a32.47,32.47,0,0,1-4.1,4.2,7.11,7.11,0,0,1-3.5,2,3.47,3.47,0,0,1-2.9-1.1c-1.2-1-1.6-1.9-1.4-2.8a7.88,7.88,0,0,1,2.3-3.3,53.11,53.11,0,0,0,4-4.4c1.2-1.5,2.4-3,3.4-4.5-1-.8-2-1.6-2.9-2.4s-1.9-1.6-2.9-2.4a13.59,13.59,0,0,1-1.7-1.6,3.59,3.59,0,0,1-.7-1.8,5.59,5.59,0,0,1,.1-2.2c.2-.8.4-1.9.8-3.1.6-1.9,1.1-4,1.6-6.3s1-4.8,1.4-7.4h-1.5a6.85,6.85,0,0,1-3.6-.8,3.33,3.33,0,0,1-1.1-2.8c0-1.4.4-2.3,1.1-2.7a7.77,7.77,0,0,1,3.6-.6h2.4c.3-2.1.4-4.3.6-6.5a12.48,12.48,0,0,1,.2-2.1,2.26,2.26,0,0,1,.6-1.3,2.4,2.4,0,0,1,1.2-.7,10.31,10.31,0,0,1,2-.2c1.7,0,2.8.4,3.1,1.1a6,6,0,0,1,.3,3.5,31.07,31.07,0,0,1-.4,3.2c-.1,1-.2,2-.4,3.1h4.5a30.09,30.09,0,0,1,3.5.2,3.4,3.4,0,0,1,2,.9,4.65,4.65,0,0,1,.9,2A14.7,14.7,0,0,1,280.2,34.9ZM266.3,54.6a10.63,10.63,0,0,0,1.1.9c.4.3.8.6,1.3,1a38.65,38.65,0,0,0,2.9-8.9,60.54,60.54,0,0,0,1.3-10c0-.9,0-1.4-.3-1.7s-.8-.4-1.7-.4h-2.8c-.5,3.1-1,6-1.5,8.8s-1.1,5.5-1.6,8.1a1.31,1.31,0,0,0,.2,1.1C265.3,53.8,265.7,54.1,266.3,54.6Zm46.3-7.9a3.12,3.12,0,0,1,2.6,1,5.3,5.3,0,0,1,0,5.6,3,3,0,0,1-2.6,1H309a17,17,0,0,1,.4,2.2,19.27,19.27,0,0,1,.1,2.4,38.36,38.36,0,0,1-.7,7.8,22.28,22.28,0,0,1-2.3,6.3,11.55,11.55,0,0,1-4,4.2,11,11,0,0,1-5.9,1.5,17,17,0,0,1-2.3-.1,22.3,22.3,0,0,1-2.3-.4c-.8-.2-1.7-.4-2.6-.7a32.13,32.13,0,0,1-3.1-1.2,5.61,5.61,0,0,1-3-2.2,4,4,0,0,1,0-3.4,3.07,3.07,0,0,1,1.9-2.2,5.48,5.48,0,0,1,3.6.5c1,.4,1.9.7,2.7,1s1.4.4,2,.6l1.7.3a9.15,9.15,0,0,0,1.7.1,2.88,2.88,0,0,0,2.5-1.3,10.67,10.67,0,0,0,1.6-3.2,17.73,17.73,0,0,0,.8-4c.1-1.4.2-2.6.2-3.6a16,16,0,0,0-.8-4.7H284.7c-2.6,0-4-1.3-4-3.8s1.3-3.8,4-3.8h11.7c-.9-.9-2-1.8-3.2-2.8V44a4.82,4.82,0,0,1-1.7-2.1,7.64,7.64,0,0,1-.5-2.7,4.8,4.8,0,0,1,2.7-4.4c.8-.5,1.5-.9,2.1-1.3s1.2-.7,1.7-1.1,1-.7,1.5-1,1-.7,1.6-1c.7-.5,1-.8,1-1s-.4-.3-1.3-.3H285.8a4,4,0,0,1-2.9-1,3.7,3.7,0,0,1-1-2.8c0-2.5,1.3-3.7,3.9-3.7h24a4.79,4.79,0,0,1,3.5,1.2,4.14,4.14,0,0,1,1.2,3.1,5.61,5.61,0,0,1-2.8,4.7c-1.5,1.1-3.2,2.4-5.2,3.9a71.09,71.09,0,0,1-6,4.1,1.05,1.05,0,0,0-.5.9,1.73,1.73,0,0,0,.6,1.2c1,1.2,2,2.2,2.8,3.2s1.6,1.9,2.2,2.8Z"/><path class="cls-2" d="M382.3,74.6a4.31,4.31,0,0,1-.8,3,4.19,4.19,0,0,1-2.9.8H350.2c-2.3,0-4.1-.1-5.6-.2a15.67,15.67,0,0,1-4-.9,10.74,10.74,0,0,1-3.2-2c-1-.9-2-2-3.2-3.3a27.55,27.55,0,0,1-2.8,3.7,17.5,17.5,0,0,1-3.3,2.8,6.5,6.5,0,0,1-3.4,1.1,3,3,0,0,1-2.7-1.5,4.31,4.31,0,0,1-.7-3.2,5.46,5.46,0,0,1,2.8-2.9,23.07,23.07,0,0,0,1.9-1.4,15.37,15.37,0,0,0,1.7-1.9,12,12,0,0,0,1.2-2.2,6.56,6.56,0,0,0,.4-2.3V46.6a2.08,2.08,0,0,0-.4-1.5c-.2-.3-.7-.4-1.3-.4H325a3.72,3.72,0,0,1-2.9-.9,4.25,4.25,0,0,1-.8-2.8,4.56,4.56,0,0,1,.8-2.9,3.72,3.72,0,0,1,2.9-.9h6a12.62,12.62,0,0,1,3,.3,4,4,0,0,1,1.9,1.1,5,5,0,0,1,1,2.2,17.25,17.25,0,0,1,.3,3.6V63.5a2.2,2.2,0,0,1-.1.8,27.39,27.39,0,0,0,2.5,3.4,8.26,8.26,0,0,0,2.8,2.1,11.32,11.32,0,0,0,3.4,1.1,29.9,29.9,0,0,0,4.5.3h28.4a4.19,4.19,0,0,1,2.9.8A3.85,3.85,0,0,1,382.3,74.6ZM335.9,32.4a3.88,3.88,0,0,1-2.8,1.1,4.5,4.5,0,0,1-2.8-2c-.5-.6-1-1-1.4-1.5s-.8-.9-1.2-1.3a15.94,15.94,0,0,0-1.3-1.3,20.59,20.59,0,0,1-1.6-1.5,6.7,6.7,0,0,1-1.8-2.8,3,3,0,0,1,1-2.9,3.73,3.73,0,0,1,2.7-1.2,5.78,5.78,0,0,1,3.3,1.4c1.2,1,2.2,2,3.1,2.8s1.9,1.9,3,3.1a6.17,6.17,0,0,1,1.6,3.1,4.1,4.1,0,0,1-1.8,3Zm8.2,10.3c-1.4,0-2.3-.3-2.8-1a4.55,4.55,0,0,1-.8-2.7,4.45,4.45,0,0,1,.8-2.8,3.62,3.62,0,0,1,2.8-.9h33.6c1.4,0,2.4.3,2.8.9a4.28,4.28,0,0,1,.7,2.8,4.53,4.53,0,0,1-.7,2.7c-.5.7-1.4,1-2.8,1H360.3c-.7,1.6-1.4,2.9-2,4.1s-1.2,2.2-1.8,3.2-1.1,1.9-1.7,2.8-1.1,1.9-1.7,2.9-.8,1.8-.4,2a4.73,4.73,0,0,0,2.4.3l15.3-1.2c-.5-1-1-2-1.5-2.8s-1.1-2-1.9-3.4v.1q-1.35-2.25-.9-3.6a3.7,3.7,0,0,1,1.9-2.2,3.8,3.8,0,0,1,3.1-.5c1,.3,2,1.3,2.9,3,.7,1.5,1.3,2.8,1.9,3.8a20.18,20.18,0,0,1,1.4,3c.4,1,.9,2.1,1.4,3.4s1.1,3,1.8,5.1a7.29,7.29,0,0,1,.4,4.2,3.52,3.52,0,0,1-2.7,2,7.72,7.72,0,0,1-1.5.2,2,2,0,0,1-1.3-.4,3.8,3.8,0,0,1-1.1-1.1,12.93,12.93,0,0,1-.9-2c-.1-.3-.2-.5-.3-.8s-.2-.5-.3-.8L348,66.2a8.87,8.87,0,0,1-4.4-.2,3.93,3.93,0,0,1-2.3-1.8,4,4,0,0,1-.3-2.9,9.85,9.85,0,0,1,1.6-3.5l2.7-3.6c.9-1.2,1.6-2.3,2.4-3.6s1.6-2.5,2.3-3.8,1.5-2.7,2.3-4.3h-8.2ZM379,24.3a4.53,4.53,0,0,1-.7,2.7c-.5.7-1.4,1-2.8,1H346.6c-1.4,0-2.3-.3-2.8-1a4.55,4.55,0,0,1-.8-2.7,4.45,4.45,0,0,1,.8-2.8,3.62,3.62,0,0,1,2.8-.9h28.9a3.47,3.47,0,0,1,2.8.9A5.22,5.22,0,0,1,379,24.3Z"/><polygon class="cls-1" points="252.9 97.3 184.9 97.1 184.9 93.4 248.7 93.4 252.9 97.3"/><polygon class="cls-2" points="382 97 256.1 97.3 251.8 93.4 382 93.4 382 97"/><path class="cls-1" d="M189.5,42.8l1.7,1c.5.3,1,.6,1.6,1s1.1.7,1.7,1.1,1.3.9,2.1,1.5l.4.3h0a5.31,5.31,0,0,0,3.1,1.3h.1a3.62,3.62,0,0,0,2.7-1.4l.1-.1a3.37,3.37,0,0,0,.9-3.4,6.15,6.15,0,0,0-2.2-2.7c-.7-.6-1.4-1-1.9-1.4s-1.1-.8-1.7-1.2a17.39,17.39,0,0,0-1.8-1.1c-.6-.4-1.3-.8-2.1-1.3-2.5-1.5-4.5-1.2-5.9.8-.7,1.3-1,2.3-.7,3.2C187.6,41.2,188.3,42,189.5,42.8Z"/><path class="cls-1" d="M206,55.5a3.78,3.78,0,0,0-2.4-2.2l-.9-.4h0a3.22,3.22,0,0,0-2.2.1,4.75,4.75,0,0,0-1.8,1.9V55l-.4.9c-1.4,2.9-2.8,5.6-4.3,8.1a51.17,51.17,0,0,1-4.8,6.8,6,6,0,0,0-1.8,3.6,3.81,3.81,0,0,0,1.4,2.8l.4.4v-.1a3.69,3.69,0,0,0,2.3.7h.4a4.22,4.22,0,0,0,3.1-1.9c1.9-2.5,3.7-5.2,5.4-7.9s3.3-5.7,5-9l.2-.3h-.1A4.92,4.92,0,0,0,206,55.5Z"/><path class="cls-1" d="M204.2,26c-.7-.5-1.4-1-1.9-1.4s-1.1-.8-1.7-1.2l-1.8-1.2c-.6-.4-1.3-.8-2.1-1.3a5.2,5.2,0,0,0-3.5-.9,4.27,4.27,0,0,0-2.4,1.9,4,4,0,0,0-.7,3.2,4.72,4.72,0,0,0,2.1,2.4c.6.4,1.2.7,1.7,1.1s1,.7,1.6,1,1.1.7,1.7,1.1,1.3.9,2.1,1.4l.3.2h0a6.08,6.08,0,0,0,3.1,1.3h.1a3.62,3.62,0,0,0,2.7-1.4l.1-.1c1-1.3,1.3-2.4.9-3.4A9.21,9.21,0,0,0,204.2,26Z"/><path class="cls-1" d="M246.4,71.2a3.92,3.92,0,0,0-3.1-1H216c-.5,0-.6-.1-.6-.1a1.45,1.45,0,0,1-.1-.6V29.4a2.18,2.18,0,0,1,.1-.6,1.21,1.21,0,0,1,.5-.1h26.2c1.6,0,2.6-.3,3.1-1.1a5,5,0,0,0,.7-2.9,5,5,0,0,0-.7-2.9c-.5-.7-1.5-1.1-3.1-1.1H214.7a34.69,34.69,0,0,0-3.8.2,4.46,4.46,0,0,0-2.3,1,3.36,3.36,0,0,0-1.1,2.3,18.33,18.33,0,0,0-.3,3.7v43a17.66,17.66,0,0,0,.3,3.7,5,5,0,0,0,1.1,2.3,4.4,4.4,0,0,0,2.3,1,34.69,34.69,0,0,0,3.8.2h28.4c1.6,0,2.6-.3,3.1-1a4.74,4.74,0,0,0,.7-3A3.65,3.65,0,0,0,246.4,71.2Z"/></svg>