<?xml version="1.0" standalone="no"?><!DOCTYPE svg PUBLIC "-//W3C//DTD SVG 1.1//EN" "http://www.w3.org/Graphics/SVG/1.1/DTD/svg11.dtd"><svg t="1550467672803" class="icon" style="" viewBox="0 0 1024 1024" version="1.1" xmlns="http://www.w3.org/2000/svg" p-id="3621" xmlns:xlink="http://www.w3.org/1999/xlink" width="130" height="130"><defs><style type="text/css"></style></defs><path d="M511.407407 26.666667c-268.088889 0-485.451852 217.362963-485.451851 485.451852 0 268.088889 217.362963 485.451852 485.451851 485.451851 268.088889 0 485.451852-217.362963 485.451852-485.451851 0-268.088889-217.362963-485.451852-485.451852-485.451852zM357.925926 231.466667H656.592593c3.792593 0 7.22963 2.133333 8.888888 5.451852 1.659259 3.318519 1.422222 7.466667-0.829629 10.429629-0.237037 0.355556-0.592593 0.711111-0.82963 1.066667l-43.496296 51.674074v-0.118519c-11.97037 15.407407-26.192593 27.259259-41.718519 27.25926H435.674074c-14.340741 0-27.496296-9.955556-38.755555-23.585186l0.118518 0.237037-45.392593-54.755555c-0.948148-0.82963-1.896296-1.777778-2.488888-2.962963-1.659259-3.081481-1.540741-6.874074 0.237037-9.955556 1.659259-2.844444 4.977778-4.740741 8.533333-4.74074z m344.888889 539.377777H320.237037c-40.059259 0-72.651852-43.259259-72.651852-86.281481 0 0 38.162963-327.585185 193.659259-327.585185h140.444445c155.496296 0 193.659259 327.585185 193.659259 327.585185 0.118519 43.022222-32.474074 86.281481-72.533333 86.281481z m0 0" fill="#3594d2" p-id="3622"></path><path d="M553.955556 554.903704c12.681481 3.911111 22.162963 10.192593 28.562963 18.962963 6.4 8.77037 9.481481 18.844444 9.481481 30.222222s-2.844444 21.807407-8.533333 31.407407c-5.688889 9.481481-13.866667 16.592593-24.414815 21.096297-10.548148 4.503704-24.888889 6.755556-43.022222 6.755555h-0.82963v29.274074h-14.696296v-29.274074h-62.340741V459.614815h62.340741v-18.844445h14.696296v18.844445c23.940741 0 41.125926 5.333333 51.437037 16s15.407407 22.637037 15.407407 35.911111c0 8.888889-2.37037 17.066667-6.992592 24.651852-4.503704 7.585185-11.614815 13.866667-21.096296 18.725926z m-53.451852-9.955556v-61.155555h-35.318519v61.155555h35.318519z m0 94.103704v-70.044445h-35.318519v70.044445h35.318519z m14.814815-94.103704c14.340741-0.118519 24.651852-2.607407 30.933333-7.466667 6.281481-4.859259 9.481481-12.325926 9.481481-22.4 0-10.42963-3.081481-18.251852-9.362963-23.229629-6.281481-5.096296-16.592593-7.703704-31.051851-7.940741v61.037037z m0 94.103704h0.592592c18.133333 0 30.696296-3.081481 37.807408-9.362963 6.992593-6.162963 10.548148-14.814815 10.548148-25.718519 0-11.377778-3.792593-20.02963-11.496297-26.074074s-20.148148-9.007407-37.451851-9.007407v70.162963z" fill="#3594d2" p-id="3623"></path></svg>