<svg xmlns="http://www.w3.org/2000/svg" viewBox="0 0 34.72 42.9"><defs><style>.cls-1{fill:#1584ca;}</style></defs><title>资源 21</title><g id="图层_2" data-name="图层 2"><g id="图层_1-2" data-name="图层 1"><path class="cls-1" d="M23.32,37.13a5.92,5.92,0,0,1-5.89,5.77,5.84,5.84,0,0,1-5.9-5.77Z"/><path class="cls-1" d="M21.45,3.89a3.89,3.89,0,1,0-7.77,0v.53A15.2,15.2,0,0,0,3.89,18.64v5.22S3.89,31.5,2,31.5a1.88,1.88,0,0,0-2,1.88,2,2,0,0,0,1.87,1.87h31a1.83,1.83,0,0,0,1.88-1.87,2,2,0,0,0-1.88-1.88C31,31.5,31,23.86,31,23.86V18.64A14.63,14.63,0,0,0,21.18,4.43a.55.55,0,0,0,.27-.54Z"/></g></g></svg>