<?xml version="1.0" standalone="no"?><!DOCTYPE svg PUBLIC "-//W3C//DTD SVG 1.1//EN" "http://www.w3.org/Graphics/SVG/1.1/DTD/svg11.dtd"><svg t="1550467641595" class="icon" style="" viewBox="0 0 1024 1024" version="1.1" xmlns="http://www.w3.org/2000/svg" p-id="2816" xmlns:xlink="http://www.w3.org/1999/xlink" width="130" height="130"><defs><style type="text/css"></style></defs><path d="M535.1 60.1c-256.7 0-464.7 208.1-464.7 464.7s208.1 464.7 464.7 464.7 464.7-208.1 464.7-464.7-208-464.7-464.7-464.7z m-69.5 148.3c11.3-10.7 29-10.3 39.6 1l145.2 153.7c10.6 11.3 10.2 29.1-1.1 39.8-11.2 10.7-29 10.3-39.6-1L464.5 248.2c-10.7-11.3-10.2-29.1 1.1-39.8z m-49.2 543.3c0 6.6-5.4 12-12 12H229.8c-6.6 0-12-5.4-12-12v-7.5c0-6.6 5.4-12 12-12h174.7c6.6 0 12 5.4 12 12v7.5zM409 632.1c-11.2 10.7-29 10.3-39.6-1L224.1 477.4c-10.6-11.3-10.2-29.1 1.1-39.8 11.2-10.7 29-10.3 39.6 1L410 592.3c10.7 11.2 10.3 29-1 39.8z m388.2 167.6c-18 17.2-46.4 16.5-63.4-1.6L488.1 515.2l-54.9 52.3-142.7-151 150.7-143.7 142.7 151-52.2 49.8L798.9 736c17.1 18 16.3 46.6-1.7 63.7z" fill="#3594d2" p-id="2817"></path></svg>