<?xml version="1.0" standalone="no"?><!DOCTYPE svg PUBLIC "-//W3C//DTD SVG 1.1//EN" "http://www.w3.org/Graphics/SVG/1.1/DTD/svg11.dtd"><svg t="1550467963629" class="icon" style="" viewBox="0 0 1024 1024" version="1.1" xmlns="http://www.w3.org/2000/svg" p-id="5721" xmlns:xlink="http://www.w3.org/1999/xlink" width="130" height="130"><defs><style type="text/css"></style></defs><path d="M512 1024C229.238154 1024 0 794.761846 0 512S229.238154 0 512 0s512 229.238154 512 512-229.238154 512-512 512z m-57.107692-329.885538a56.812308 56.812308 0 1 0-113.644308 0 56.812308 56.812308 0 0 0 113.624615 0z m318.188307 0a56.812308 56.812308 0 1 0-113.644307 0 56.812308 56.812308 0 0 0 113.624615 0z m50.76677-193.654154l-50.76677-90.44677c-10.397538-12.524308-17.408-22.744615-34.107077-22.744615h-79.517538v-68.174769c0-12.563692-10.180923-22.744615-22.764308-22.744616H273.073231c-12.563692 0-22.744615 10.200615-22.744616 22.744616v340.932923c0 12.544 10.180923 22.724923 22.744616 22.724923h45.331692c5.533538-39.148308 38.971077-69.474462 79.655385-69.474462s74.121846 30.326154 79.694769 69.474462h158.838154c5.592615-39.148308 39.010462-69.474462 79.675077-69.474462 40.664615 0 74.102154 30.326154 79.675077 69.474462h22.587077c12.563692 0 22.744615-10.200615 22.744615-22.744615v-113.624616c0-21.523692-17.408-45.883077-17.408-45.883077l-0.019692-0.039384z m-141.705847 45.922461v-113.624615h55.611077c3.643077 0 8.743385 5.356308 8.743385 5.356308l47.852308 88.969846c4.233846 6.222769 8.822154 13.607385 8.822154 19.298461H682.141538z" p-id="5722" fill="#3594d2"></path></svg>