<svg xmlns="http://www.w3.org/2000/svg" viewBox="0 0 43 41.25"><defs><style>.cls-1{fill:#1584ca;}.cls-2{fill:none;}</style></defs><title>资源 22</title><g id="图层_2" data-name="图层 2"><g id="图层_1-2" data-name="图层 1"><path class="cls-1" d="M38.72,14.17A18.72,18.72,0,0,0,8.23,8.22,18.66,18.66,0,0,0,2.75,21.46a18.8,18.8,0,0,0,1.47,7.29,18.72,18.72,0,0,0,24.54,10,18.59,18.59,0,0,0,5.95-4,18.74,18.74,0,0,0,4-20.52Zm-6.07,9.11H21.17a1.53,1.53,0,0,1-1.54-1.54V10.26a1.54,1.54,0,1,1,3.08,0v10h9.94a1.54,1.54,0,1,1,0,3.07Z"/><path class="cls-1" d="M4.08,41.19a1.58,1.58,0,0,1-1-.36,1.54,1.54,0,0,1-.17-2.17l5.1-6a1.54,1.54,0,1,1,2.34,2l-5.1,6a1.56,1.56,0,0,1-1.17.53Zm34.78,0a1.54,1.54,0,0,1-1.17-.54l-5.1-6a1.54,1.54,0,1,1,2.34-2l5.1,6a1.55,1.55,0,0,1-.17,2.17,1.58,1.58,0,0,1-1,.36Z"/><path class="cls-1" d="M3.88,10a1.56,1.56,0,0,1-1.09.46A1.51,1.51,0,0,1,1.7,10,5.83,5.83,0,0,1,9.94,1.72a1.55,1.55,0,0,1,0,2.18M33,3.9a1.55,1.55,0,0,1,0-2.18A5.83,5.83,0,1,1,41.24,10a1.54,1.54,0,0,1-1.09.46A1.49,1.49,0,0,1,39.07,10"/><rect class="cls-2" x="0.01" width="42.99" height="41.25"/></g></g></svg>