<svg xmlns="http://www.w3.org/2000/svg" viewBox="0 0 40.06 42.99"><defs><style>.cls-1{fill:#1584ca;}.cls-2{fill:none;}</style></defs><title>资源 23</title><g id="图层_2" data-name="图层 2"><g id="图层_1-2" data-name="图层 1"><path class="cls-1" d="M20,0C8.82,0-.13,8.64,0,19.26A18.82,18.82,0,0,0,5.7,32.71V42.93l9-5a22.06,22.06,0,0,0,5.29.67C31.08,38.63,40,30.16,40,19.4S31.08,0,20,0ZM9.23,22.49A3.5,3.5,0,0,1,5.7,19a3.58,3.58,0,0,1,3.53-3.5,3.5,3.5,0,1,1,0,7Zm10.72,0A3.49,3.49,0,0,1,16.43,19,3.57,3.57,0,0,1,20,15.49,3.49,3.49,0,0,1,23.48,19,3.41,3.41,0,0,1,20,22.49Zm10.73,0A3.49,3.49,0,0,1,27.15,19a3.58,3.58,0,0,1,3.53-3.5A3.5,3.5,0,0,1,34.21,19a3.41,3.41,0,0,1-3.53,3.5Z"/><rect class="cls-2" width="40.06" height="42.99"/></g></g></svg>